<svg xmlns="http://www.w3.org/2000/svg" width="3840" height="2160" viewBox="0 0 3840 2160">
  <rect width="3840" height="2160" fill="#f7f8f6"/>
  <text x="180" y="175" font-family="Noto Sans SC, Microsoft YaHei, sans-serif" font-size="78" font-weight="700" fill="#0d2b52">肝硬化医学影像专病库 · 四层数据架构</text>
  <text x="185" y="245" font-family="Noto Sans SC, Microsoft YaHei, sans-serif" font-size="35" fill="#667085">DICOM 脱敏匿名化、多模态影像分层、临床-病理-预后字段结构化绑定</text>
  <g font-family="Noto Sans SC, Microsoft YaHei, sans-serif">
    <rect x="170" y="370" width="570" height="1420" rx="44" fill="#fff" stroke="#e4e7ec" stroke-width="4"/>
    <text x="230" y="485" font-size="48" font-weight="700" fill="#0d2b52">多中心数据来源</text>
    <rect x="820" y="530" width="395" height="1110" rx="42" fill="#102f58"/>
    <text x="880" y="645" font-size="48" font-weight="700" fill="#fff">标准化采集与治理闸门</text>
    <rect x="1580" y="760" width="680" height="645" rx="52" fill="#fff" stroke="#d7dce5" stroke-width="4"/>
    <text x="1740" y="990" font-size="48" font-weight="700" fill="#0d2b52">肝硬化专病结构化数据湖</text>
    <rect x="1355" y="410" width="1130" height="255" rx="42" fill="#f7e8e8"/>
    <text x="1425" y="490" font-size="38" font-weight="700" fill="#8b1a1a">影像层：增强CT · 腹部MRI · 弹性超声 · 消化内镜</text>
    <rect x="2495" y="760" width="1055" height="275" rx="42" fill="#eaf0f7"/>
    <text x="2565" y="845" font-size="38" font-weight="700" fill="#0d2b52">临床层：肝功能指标 · 病因分型 · 并发症记录 · 干预治疗</text>
    <rect x="1355" y="1500" width="1130" height="310" rx="42" fill="#fff4df"/>
    <text x="1425" y="1590" font-size="38" font-weight="700" fill="#a16b13">病理层：肝纤维化分期 · 病理特征 · 影像征象绑定 · 科研字段体系</text>
    <rect x="525" y="760" width="985" height="275" rx="42" fill="#edf7f3"/>
    <text x="595" y="845" font-size="38" font-weight="700" fill="#0f766e">预后层：随访预后 · 并发症预判 · 分级诊疗 · 科研输出</text>
    <rect x="2600" y="1220" width="950" height="580" rx="42" fill="#fff" stroke="#d7dce5" stroke-width="4"/>
    <text x="2660" y="1335" font-size="48" font-weight="700" fill="#0d2b52">科研与临床支撑</text>
  </g>
</svg>